<svg width="125" height="33" viewBox="0 0 125 33" fill="none" xmlns="http://www.w3.org/2000/svg">
<path d="M44.499 26.7595V24.1826C41.4218 24.9582 37.5689 25.6087 34.942 25.6337C31.9648 25.6587 29.6381 24.4578 29.6381 20.8802V8.74631C29.6381 7.39532 28.8375 6.24447 28.8375 6.24447H42.4976V10.0222H34.4416V13.2996H42.4976V17.0774H34.4416V19.9795C34.4416 21.2805 34.867 21.7058 36.2179 21.7058C38.5447 21.7308 41.6719 21.1804 44.499 20.4299V5.99429H49.3025V13.1495H51.5542V17.1775H49.3025V26.7595H44.499ZM55.174 20.3798C55.174 19.279 54.4235 18.0031 54.4235 18.0031H73.8127V27.0097H57.6508C55.8495 27.0097 55.174 25.9339 55.174 24.683V20.3798ZM73.8127 5.99429V17.0024H69.0092V5.99429H73.8127ZM59.9776 23.1319C59.9776 23.6572 60.0776 23.7823 60.7031 23.7823H69.0092V21.2555H59.9776V23.1319ZM60.0276 5.39385C65.2314 5.39385 67.358 8.321 67.358 11.2982C67.358 14.2253 65.2314 17.1525 60.0276 17.1525C54.8238 17.1525 52.6972 14.2253 52.6972 11.2481C52.6972 8.321 54.8238 5.39385 60.0276 5.39385ZM60.0276 14.0502C61.7038 14.0502 62.7046 12.8493 62.7046 11.2231C62.7046 9.72202 61.7038 8.49612 60.0276 8.49612C58.3263 8.49612 57.3506 9.72202 57.3506 11.2982C57.3506 12.8243 58.3263 14.0502 60.0276 14.0502Z" fill="#0F69F5"/>
<path d="M90.5549 6.24447V25.5586H79.9971C77.9456 25.5586 76.6697 24.1326 76.6697 22.0561V8.5962C76.6697 7.52041 75.9191 6.24447 75.9191 6.24447H90.5549ZM97.0846 5.99429V13.1495H99.3363V17.1775H97.0846V26.7595H92.2811V5.99429H97.0846ZM81.3731 20.7301C81.3731 21.5557 81.6984 21.8309 82.3739 21.8309H85.8764V9.97221H81.3731V20.7301ZM100.186 19.204V15.6514C102.988 15.5763 104.439 14.9258 105.19 13.9001H100.811V12.9244C100.811 11.7735 100.036 10.5226 100.036 10.5226H105.99V9.54689H100.811V8.52114C100.811 7.3703 100.036 6.11938 100.036 6.11938H110.919V8.321C110.919 8.92144 110.894 9.54689 110.819 10.1473H112.52V5.99429H116.998V17.6278H112.52V13.9251H109.868C108.542 17.0024 105.74 19.4041 100.186 19.204ZM114.822 18.3784V19.204C114.822 22.2062 118.599 23.6322 122.427 23.5822V27.1598C118.499 27.46 113.896 26.2341 112.295 23.6823C110.719 26.2341 106.09 27.46 102.187 27.1598V23.5822C106.015 23.6322 109.693 22.0561 109.793 19.7794C109.818 19.0789 109.343 18.3784 109.343 18.3784H114.822ZM117.924 18.1282V5.99429H122.402V18.1282H117.924Z" fill="black"/>
<g clip-path="url(#clip0_26_400)">
<path d="M23.7351 32.9362H0C0 32.862 0 32.7936 0 32.7248C0.00879684 30.1765 0.000399856 27.6277 0.0319885 25.0798C0.0603783 22.8022 0.741734 20.7158 2.11204 18.8571C2.58147 18.2203 3.18886 17.7141 3.81703 17.2315C4.14011 16.9833 4.4648 16.7377 4.81227 16.4727C4.7243 16.4005 4.65193 16.3403 4.57836 16.2808C3.99976 15.8146 3.38519 15.3841 2.84938 14.8755C1.64501 13.7317 0.926867 12.3081 0.465433 10.7494C0.0903676 9.48005 0.00839699 8.18315 0.0127954 6.87148C0.0199928 4.64678 0.00519813 2.42169 0.000399857 0.196594C0 0.133653 0.0063977 0.0707118 0.00959656 0H23.7443C23.7443 0.0784824 23.7443 0.148029 23.7443 0.217186C23.7355 2.75893 23.7431 5.30106 23.7127 7.8428C23.6855 10.1203 23.0069 12.2071 21.6386 14.0678C21.166 14.7104 20.5538 15.2213 19.9201 15.7073C19.5974 15.9552 19.2731 16.2012 18.93 16.463C19.0336 16.5454 19.1175 16.6153 19.2047 16.6818C19.9312 17.2378 20.693 17.7584 21.29 18.4538C22.3036 19.6334 22.9698 20.9835 23.3592 22.4735C23.6671 23.6512 23.7319 24.8455 23.7307 26.0511C23.7287 28.2824 23.7395 30.5141 23.7443 32.7454C23.7443 32.8025 23.7391 32.8596 23.7351 32.9362ZM3.41877 3.31646C3.41158 3.42913 3.39958 3.5251 3.40038 3.62068C3.40958 4.96615 3.40798 6.31161 3.43757 7.65669C3.44916 8.1847 3.49715 8.71698 3.58991 9.23683C3.85502 10.7233 4.52718 12.0027 5.72595 12.9923C6.52126 13.6489 7.39455 14.1886 8.33621 14.6249C8.69608 14.7916 9.06715 14.9408 9.40942 15.137C10.485 15.7536 10.479 17.183 9.40503 17.8031C9.1999 17.9216 8.98398 18.0249 8.76526 18.1178C8.01313 18.4367 7.30818 18.8346 6.62202 19.2709C4.57436 20.5725 3.55752 22.4386 3.46196 24.7806C3.39958 26.3118 3.41637 27.8457 3.39998 29.3784C3.39918 29.4589 3.41837 29.5393 3.42717 29.61H11.3435V27.627C10.9369 27.627 10.5438 27.6425 10.1524 27.6227C9.71531 27.6005 9.27147 27.5862 8.84523 27.4995C6.63242 27.0508 4.95982 25.067 4.97741 22.9421C4.98061 22.5369 5.15575 22.3539 5.5684 22.3504C6.20058 22.3449 6.83395 22.3325 7.46572 22.3554C9.29786 22.4215 10.7078 23.2094 11.6794 24.7266C11.7306 24.8066 11.7806 24.8875 11.8446 24.9892C12.0509 24.7231 12.2384 24.4737 12.4339 24.2301C13.1077 23.3905 13.9346 22.7548 15.025 22.5287C16.0998 22.3057 17.1978 22.3671 18.2882 22.3605C18.5909 22.3585 18.7709 22.5586 18.7609 22.8543C18.7497 23.1822 18.7285 23.5156 18.6573 23.8353C18.1627 26.0538 16.3197 27.5252 13.9798 27.5877C13.4556 27.6017 12.9318 27.6196 12.3968 27.6359V29.6112C12.4643 29.6162 12.5219 29.624 12.5799 29.624C15.103 29.6248 17.6261 29.6232 20.1492 29.6279C20.3023 29.6279 20.3519 29.5746 20.3471 29.4398C20.3447 29.3753 20.3503 29.3104 20.3499 29.2459C20.3411 28.1592 20.3331 27.0725 20.3231 25.9862C20.3159 25.2169 20.3195 24.4473 20.164 23.6869C19.9057 22.425 19.411 21.278 18.4626 20.3502C17.5753 19.4823 16.5289 18.8365 15.4013 18.307C15.0602 18.1469 14.7087 18.0047 14.3804 17.8233C13.2548 17.2016 13.2512 15.7489 14.3692 15.1176C14.57 15.0041 14.7795 14.9031 14.9922 14.8133C15.7511 14.4924 16.4609 14.0899 17.1514 13.6482C19.1743 12.3532 20.1848 10.5023 20.2843 8.18353C20.3503 6.64613 20.3319 5.10563 20.3487 3.56628C20.3495 3.48547 20.3303 3.40427 20.3199 3.31763H3.41877V3.31646Z" fill="black"/>
<path d="M11.855 16.0057C11.8122 15.8309 11.769 15.6561 11.7262 15.4812C11.5795 14.8759 11.2096 14.4128 10.7294 14.025C10.2752 13.6583 9.74416 13.4209 9.21075 13.1831C8.17672 12.7223 7.21746 12.1519 6.42854 11.3368C5.87034 10.7598 5.56046 10.0624 5.34173 9.31569C5.33894 9.30559 5.34773 9.29238 5.34853 9.28966C10.6354 10.6316 15.0499 9.30831 18.5902 5.24432C18.5894 5.24199 18.6046 5.26258 18.6042 5.28279C18.5806 6.38814 18.6026 7.49661 18.5194 8.59731C18.4198 9.91791 17.8093 11.0128 16.75 11.8644C15.9219 12.5304 14.9767 12.995 14.007 13.4255C13.2865 13.7453 12.6535 14.1874 12.2712 14.8817C12.1145 15.1661 12.0461 15.4968 11.9398 15.8072C11.9174 15.8721 11.905 15.9401 11.8878 16.0065H11.8554L11.855 16.0057Z" fill="#0F69F5"/>
</g>
<defs>
<clipPath id="clip0_26_400">
<rect width="23.7447" height="32.9362" fill="white"/>
</clipPath>
</defs>
</svg>
