<svg width="21" height="21" viewBox="0 0 21 21" fill="none" xmlns="http://www.w3.org/2000/svg">
<path d="M4.85656 18.491H6.91663C7.10483 18.491 7.23816 18.5387 7.37536 18.6804L8.83978 20.1261C9.97692 21.2742 11.0231 21.2683 12.1603 20.1261L13.6247 18.6804C13.7678 18.5387 13.9011 18.491 14.0847 18.491H16.1435C17.7572 18.491 18.5038 17.7508 18.5038 16.1323V14.0809C18.5038 13.8915 18.5528 13.757 18.6874 13.6153L20.1401 12.1578C21.2903 11.0155 21.2831 9.97008 20.1401 8.83373L18.6874 7.37034C18.5515 7.23323 18.5038 7.1 18.5038 6.91193V4.8533C18.5038 3.24663 17.7631 2.50052 16.1435 2.50052H14.0847C13.9011 2.50052 13.7665 2.44696 13.6247 2.31115L12.1603 0.859527C11.0218 -0.289879 9.97692 -0.283993 8.83389 0.862111L7.37536 2.31115C7.24074 2.44696 7.10483 2.50052 6.91663 2.50052H4.85656C3.24287 2.50052 2.50211 3.23227 2.50211 4.8533V6.91193C2.50211 7.1 2.44852 7.23582 2.31261 7.37034L0.859971 8.83373C-0.28895 9.97008 -0.283058 11.0155 0.859971 12.1578L2.31261 13.6153C2.44852 13.757 2.50211 13.8915 2.50211 14.0809V16.1323C2.50211 17.7449 3.24416 18.491 4.85656 18.491Z" fill="#0F69F5"/>
<path d="M9.48357 15.0314C9.1731 15.0314 8.92657 14.9018 8.69627 14.6083L6.31912 11.7477C6.17703 11.5627 6.10132 11.369 6.10132 11.165C6.10132 10.7492 6.42601 10.411 6.84208 10.411C7.0991 10.411 7.29937 10.5041 7.50166 10.7729L9.45153 13.1885L13.46 6.82406C13.6368 6.54583 13.8637 6.40441 14.1206 6.40441C14.5223 6.40441 14.8947 6.68652 14.8947 7.10818C14.8947 7.29597 14.7967 7.5007 14.6852 7.6793L10.2291 14.6032C10.0432 14.8815 9.78556 15.0314 9.48357 15.0314Z" fill="white"/>
</svg>
