<svg width="191" height="208" viewBox="0 0 191 208" fill="none" xmlns="http://www.w3.org/2000/svg">
<path d="M32.2607 200.1V194.95C26.1107 196.5 18.4107 197.8 13.1607 197.85C7.21074 197.9 2.56074 195.5 2.56074 188.35V164.1C2.56074 161.4 0.960742 159.1 0.960742 159.1H28.2607V166.65H12.1607V173.2H28.2607V180.75H12.1607V186.55C12.1607 189.15 13.0107 190 15.7107 190C20.3607 190.05 26.6107 188.95 32.2607 187.45V158.6H41.8607V172.9H46.3607V180.95H41.8607V200.1H32.2607ZM53.5951 187.35C53.5951 185.15 52.0951 182.6 52.0951 182.6H90.8451V200.6H58.5451C54.9451 200.6 53.5951 198.45 53.5951 195.95V187.35ZM90.8451 158.6V180.6H81.2451V158.6H90.8451ZM63.1951 192.85C63.1951 193.9 63.3951 194.15 64.6451 194.15H81.2451V189.1H63.1951V192.85ZM63.2951 157.4C73.6951 157.4 77.9451 163.25 77.9451 169.2C77.9451 175.05 73.6951 180.9 63.2951 180.9C52.8951 180.9 48.6451 175.05 48.6451 169.1C48.6451 163.25 52.8951 157.4 63.2951 157.4ZM63.2951 174.7C66.6451 174.7 68.6451 172.3 68.6451 169.05C68.6451 166.05 66.6451 163.6 63.2951 163.6C59.8951 163.6 57.9451 166.05 57.9451 169.2C57.9451 172.25 59.8951 174.7 63.2951 174.7Z" fill="#0F69F5"/>
<path d="M124.305 159.1V197.7H103.205C99.1049 197.7 96.5549 194.85 96.5549 190.7V163.8C96.5549 161.65 95.0549 159.1 95.0549 159.1H124.305ZM137.355 158.6V172.9H141.855V180.95H137.355V200.1H127.755V158.6H137.355ZM105.955 188.05C105.955 189.7 106.605 190.25 107.955 190.25H114.955V166.55H105.955V188.05ZM143.553 185V177.9C149.153 177.75 152.053 176.45 153.553 174.4H144.803V172.45C144.803 170.15 143.253 167.65 143.253 167.65H155.153V165.7H144.803V163.65C144.803 161.35 143.253 158.85 143.253 158.85H165.003V163.25C165.003 164.45 164.953 165.7 164.803 166.9H168.203V158.6H177.153V181.85H168.203V174.45H162.903C160.253 180.6 154.653 185.4 143.553 185ZM172.803 183.35V185C172.803 191 180.353 193.85 188.003 193.75V200.9C180.153 201.5 170.953 199.05 167.753 193.95C164.603 199.05 155.353 201.5 147.553 200.9V193.75C155.203 193.85 162.553 190.7 162.753 186.15C162.803 184.75 161.853 183.35 161.853 183.35H172.803ZM179.003 182.85V158.6H187.953V182.85H179.003Z" fill="black"/>
<g clip-path="url(#clip0_12_525)">
<path d="M142.962 134H48C48 133.698 48 133.42 48 133.14C48.0352 122.772 48.0016 112.403 48.128 102.036C48.2416 92.7703 50.9676 84.2819 56.4501 76.7198C58.3282 74.129 60.7583 72.0693 63.2715 70.1061C64.5642 69.096 65.8632 68.097 67.2534 67.019C66.9015 66.725 66.6119 66.48 66.3175 66.2381C64.0026 64.3413 61.5438 62.5898 59.4001 60.5207C54.5815 55.8671 51.7083 50.0753 49.8621 43.7335C48.3616 38.5693 48.0336 33.2929 48.0512 27.9564C48.08 18.9053 48.0208 9.85257 48.0016 0.79984C48 0.543764 48.0256 0.287689 48.0384 0H142.998C142.998 0.319304 142.998 0.602251 142.998 0.883617C142.963 11.2246 142.994 21.5672 142.872 31.9082C142.763 41.1744 140.048 49.6643 134.574 57.2344C132.683 59.8489 130.234 61.9275 127.698 63.905C126.407 64.9135 125.11 65.9141 123.737 66.9795C124.151 67.3146 124.487 67.5991 124.836 67.8694C127.743 70.1314 130.79 72.2495 133.179 75.079C137.234 79.8781 139.9 85.371 141.458 91.433C142.69 96.2242 142.949 101.083 142.944 105.988C142.936 115.066 142.979 124.146 142.998 133.224C142.998 133.456 142.978 133.689 142.962 134ZM61.6782 13.4929C61.6494 13.9514 61.6014 14.3418 61.6046 14.7306C61.6414 20.2046 61.635 25.6786 61.7533 31.1511C61.7997 33.2993 61.9917 35.4648 62.3629 37.5798C63.4235 43.6276 66.1128 48.8329 70.9089 52.859C74.0909 55.5304 77.5848 57.726 81.3523 59.5011C82.7921 60.1792 84.2767 60.7862 85.6461 61.5845C89.9495 64.0931 89.9255 69.9085 85.6285 72.4313C84.8078 72.9134 83.944 73.3339 83.0689 73.7117C80.0597 75.0095 77.2393 76.6281 74.494 78.4033C66.3015 83.6986 62.2333 91.2908 61.8509 100.819C61.6014 107.049 61.6686 113.29 61.603 119.525C61.5998 119.853 61.6766 120.18 61.7118 120.468H93.3843V112.4C91.7573 112.4 90.1847 112.463 88.6185 112.382C86.87 112.292 85.0942 112.234 83.3888 111.881C74.5356 110.055 67.8437 101.984 67.9141 93.3394C67.9269 91.6907 68.6276 90.9462 70.2786 90.932C72.8079 90.9098 75.3419 90.8593 77.8696 90.9525C85.1998 91.2212 90.8406 94.4269 94.7281 100.6C94.9329 100.925 95.1328 101.254 95.3888 101.668C96.2143 100.585 96.9646 99.5706 97.7469 98.5794C100.443 95.1635 103.751 92.5775 108.113 91.6575C112.414 90.7502 116.807 90.9999 121.169 90.9731C122.38 90.9652 123.1 91.7792 123.06 92.9821C123.015 94.3163 122.931 95.6725 122.646 96.9734C120.667 105.999 113.294 111.985 103.932 112.24C101.834 112.297 99.7386 112.37 97.5981 112.436V120.472C97.8685 120.493 98.0988 120.524 98.3308 120.524C108.425 120.528 118.52 120.521 128.615 120.54C129.227 120.54 129.426 120.324 129.407 119.775C129.397 119.513 129.419 119.249 129.418 118.986C129.383 114.565 129.351 110.144 129.311 105.724C129.282 102.594 129.296 99.4631 128.674 96.3696C127.64 91.2355 125.662 86.5692 121.867 82.7945C118.317 79.2632 114.13 76.636 109.619 74.4815C108.254 73.8303 106.848 73.2517 105.535 72.5135C101.031 69.9844 101.017 64.0741 105.49 61.5055C106.293 61.0439 107.131 60.6329 107.982 60.2678C111.019 58.9621 113.858 57.3245 116.621 55.5272C124.714 50.2587 128.757 42.7282 129.155 33.2945C129.419 27.0396 129.346 20.7721 129.413 14.5093C129.416 14.1806 129.339 13.8502 129.298 13.4977H61.6782V13.4929Z" fill="black"/>
<path d="M95.4304 65.119C95.2592 64.4076 95.0865 63.6963 94.9153 62.985C94.3282 60.5223 92.8483 58.638 90.927 57.0605C89.1097 55.5683 86.9851 54.6025 84.851 53.6351C80.714 51.7604 76.8761 49.4399 73.7197 46.1236C71.4864 43.7762 70.2466 40.9388 69.3715 37.9007C69.3603 37.8596 69.3955 37.8059 69.3987 37.7948C90.5511 43.2546 108.213 37.8707 122.377 21.3364C122.374 21.3269 122.435 21.4107 122.433 21.4929C122.339 25.99 122.427 30.4998 122.094 34.978C121.696 40.3508 119.253 44.8052 115.015 48.2702C111.702 50.9795 107.92 52.87 104.04 54.6215C101.158 55.9224 98.6252 57.7212 97.0958 60.546C96.4687 61.703 96.1951 63.0482 95.7696 64.3112C95.68 64.5752 95.6304 64.8518 95.5616 65.1221H95.432L95.4304 65.119Z" fill="#0F69F5"/>
</g>
<defs>
<clipPath id="clip0_12_525">
<rect width="95" height="134" fill="white" transform="translate(48)"/>
</clipPath>
</defs>
</svg>
