<svg width="24" height="20" viewBox="0 0 24 20" fill="none" xmlns="http://www.w3.org/2000/svg">
<path d="M2.99091 15.5607H4.68182V16.966C4.68182 18.9577 5.70909 20 7.68182 20H21C22.9727 20 24 18.9577 24 16.966V8.36668C24 6.37506 22.9727 5.33271 21 5.33271H19.8909C19.6545 5.33271 19.4636 5.32341 19.3091 5.29549V3.03397C19.3091 1.04235 18.2818 0 16.3182 0H2.99091C1.01818 0 0 1.04235 0 3.03397V12.5268C0 14.5277 1.01818 15.5607 2.99091 15.5607ZM3.10909 13.7087C2.27273 13.7087 1.80909 13.262 1.80909 12.3592V3.20149C1.80909 2.29874 2.27273 1.86133 3.10909 1.86133H16.2C17.0273 1.86133 17.5 2.29874 17.5 3.20149V3.79712C17.1273 3.53653 16.7273 3.40624 16.1818 3.40624H12.5C11.7636 3.40624 11.2818 3.6389 10.7909 4.14146L10.1 4.83946C9.69091 5.24895 9.47273 5.33271 8.79091 5.33271H7.68182C5.70909 5.33271 4.68182 6.37506 4.68182 8.36668V13.7087H3.10909ZM7.8 18.1387C6.95455 18.1387 6.5 17.6919 6.5 16.7985V8.5342C6.5 7.63146 6.95455 7.19404 7.8 7.19404H9.28182C10.0364 7.19404 10.5182 7.03583 10.9636 6.5705L11.8273 5.70498C12.1636 5.37925 12.4273 5.26757 12.9455 5.26757H15.7364C16.2545 5.26757 16.5182 5.37925 16.8636 5.70498L17.7182 6.5705C18.1636 7.03583 18.6455 7.19404 19.4091 7.19404H20.8818C21.7273 7.19404 22.1818 7.63146 22.1818 8.5342V16.7985C22.1818 17.6919 21.7273 18.1387 20.8818 18.1387H7.8ZM14.3455 16.9474C16.7182 16.9474 18.6455 14.9744 18.6455 12.5361C18.6455 10.107 16.7182 8.14332 14.3455 8.14332C11.9727 8.14332 10.0455 10.107 10.0455 12.5361C10.0455 14.9744 11.9727 16.9474 14.3455 16.9474ZM19.8 10.4979C20.3727 10.4979 20.8364 10.0326 20.8364 9.44625C20.8364 8.85993 20.3727 8.3853 19.8 8.3853C19.2273 8.3853 18.7727 8.85993 18.7727 9.44625C18.7727 10.0326 19.2273 10.4979 19.8 10.4979ZM14.3455 15.3374C12.8364 15.3374 11.6182 14.081 11.6182 12.5361C11.6182 11.0005 12.8364 9.74407 14.3455 9.74407C15.8545 9.74407 17.0727 11.0005 17.0727 12.5361C17.0727 14.081 15.8545 15.3374 14.3455 15.3374Z" fill="#0F69F5"/>
</svg>
